<svg id="圖層_1" data-name="圖層 1" xmlns="http://www.w3.org/2000/svg" viewBox="0 0 148.77 53.06"><defs><style>.cls-1{fill:#ccc;}.cls-2{fill:none;stroke:#000;stroke-linecap:round;stroke-linejoin:round;stroke-width:0.87px;}</style></defs><circle class="cls-1" cx="20.81" cy="23.35" r="19.12"/><circle cx="26.89" cy="21.51" r="1.15"/><path d="M41.08,46c.9-3,1.89-6.2,4.23-8.31a.65.65,0,0,1,.31-.18.69.69,0,0,1,.48.2,3.59,3.59,0,0,0,2.58.63,12.54,12.54,0,0,0-4.74,4.13q-1.39,1.77-2.69,3.64Z"/><path d="M49.41,25.3A4.78,4.78,0,0,0,48,22.1a4.09,4.09,0,0,1,2.17.18,2.3,2.3,0,0,1,.78.77l3.82,5.38A16,16,0,0,1,56,30.29a10.24,10.24,0,0,0,.82,1.53,14.18,14.18,0,0,0,1.69,1.59c2,1.9,4,6.48,6.35,7.92a11.75,11.75,0,0,0-2.86,2,17,17,0,0,1-1.53,1.53,9.88,9.88,0,0,1-1.39.84,23.69,23.69,0,0,0-2.55,1.66l-.09-.11c-1.1-1.48-3.62-3.17-4.73-4.64-.3-.42-1.33-1.25-1.18-1.75A28.55,28.55,0,0,1,51,37.79a18.82,18.82,0,0,1,.82-3,7,7,0,0,0,.6-1.87,2,2,0,0,0-.61-1.79c-.2-.16-.45-.28-.53-.52a.81.81,0,0,1,0-.41,7.23,7.23,0,0,0,0-2.32,2.35,2.35,0,0,0-1.36-1.78.8.8,0,0,1-.41-.21A.81.81,0,0,1,49.41,25.3Z"/><path d="M39.92,19.68l.14-.28a3.29,3.29,0,0,1,1,1c.31.46,2.06,5.15,2.32,5.7-.28.38-.57.76-.86,1.11a53.38,53.38,0,0,1-5.94,6.09,4.86,4.86,0,0,0,.88-3,12.88,12.88,0,0,1,.06-1.53c.2-1.21,1.2-2.15,1.42-3.35a9.74,9.74,0,0,0,0-2A6.41,6.41,0,0,1,39.92,19.68Z"/><path d="M66.7,40.42c.6,1.09,2,1.47,2.85,2.36.62.63,1,1.5,1.56,2.16s1.15.91,1.61,1.48.74,1.3,1.38,1.62a5,5,0,0,0,.88.28,2.79,2.79,0,0,1,1.68,1.51l-17.42,0,1.24-.92c1.08-.9,2.49-1.91,3-3.14A13.36,13.36,0,0,1,64.33,44C65,42.94,65.6,41.06,66.7,40.42Z"/><path class="cls-2" d="M64.88,41.33c-2.34-1.44-4.38-6-6.35-7.92a14.18,14.18,0,0,1-1.69-1.59A10.24,10.24,0,0,1,56,30.29a16,16,0,0,0-1.21-1.86L51,23.05a2.3,2.3,0,0,0-.78-.77A4.09,4.09,0,0,0,48,22.1"/><path class="cls-2" d="M36.57,33.29l-.21.2a9.66,9.66,0,0,0-3,3.54c-.26.68-.38,1.4-.68,2a2,2,0,0,1-1.64,1.24"/><path class="cls-2" d="M48,22.1c-2,.19-3.33,2.18-4.64,4-.28.38-.57.76-.86,1.11a53.38,53.38,0,0,1-5.94,6.09"/><path class="cls-2" d="M31.08,40.32c-1.26.12-.81,1.41-1.3,2a1.4,1.4,0,0,1-.65.51c-.3.09-.63,0-.91.1-.48.22-.43.89-.51,1.41a3.34,3.34,0,0,1-1.86,2.06,5.4,5.4,0,0,0-2.2,1.76"/><path class="cls-2" d="M48,22.1a4.78,4.78,0,0,1,1.37,3.2.81.81,0,0,0,.08.6.8.8,0,0,0,.41.21,2.35,2.35,0,0,1,1.36,1.78,7.23,7.23,0,0,1,0,2.32.81.81,0,0,0,0,.41c.08.24.33.36.53.52a2,2,0,0,1,.61,1.79,7,7,0,0,1-.6,1.87,18.82,18.82,0,0,0-.82,3,28.55,28.55,0,0,0-.43,3.09"/><path class="cls-2" d="M50.55,40.88c-.15.5.88,1.33,1.18,1.75,1.11,1.47,3.63,3.16,4.73,4.64"/><path class="cls-2" d="M43.4,26.08c-.26-.55-2-5.24-2.32-5.7a3.29,3.29,0,0,0-1-1A2.62,2.62,0,0,0,37.62,19c-.52.13-1.07.34-1.65.54a46.47,46.47,0,0,0-4.35,2.18,6.33,6.33,0,0,0-1.58.9"/><path class="cls-2" d="M39.92,19.68a6.41,6.41,0,0,0-1,3.67,9.74,9.74,0,0,1,0,2c-.22,1.2-1.22,2.14-1.42,3.35a12.88,12.88,0,0,0-.06,1.53,4.86,4.86,0,0,1-.88,3h0a1,1,0,0,1-.21.2"/><path class="cls-2" d="M37.58,18.81,36,16.71c-.88-1.17-2-2.47-3.49-2.28A27.49,27.49,0,0,0,31,11.74c-.49-.75-1.19-1.55-2.07-1.44s-1.36,1.1-1.67,1.94c-.52,1.4-1,2.8-1.55,4.21C25,18.31,24.11,20.39,22.23,21"/><path class="cls-2" d="M22.23,21c-1.59,1.93-.82,5.16-2.52,7-.37.4-.84.71-1.19,1.13-.94,1.13-.92,2.88-2,3.87-.5.47-1.19.7-1.69,1.18-.85.8-1.13,2.25-2.22,2.63"/><path class="cls-2" d="M12.51,36.9a3.52,3.52,0,0,0-.26,1.51c0,.18,0,.37,0,.55a10.39,10.39,0,0,1-1,3"/><path class="cls-2" d="M11.93,38.4a1.57,1.57,0,0,0-1.88.31,5.12,5.12,0,0,0-1,1.78,24,24,0,0,1-4,6.19,15.52,15.52,0,0,0-2.41,3"/><path class="cls-2" d="M36.57,24.4l-.42.57"/><path class="cls-2" d="M29.53,16.78a1.73,1.73,0,0,0-.58,1"/><path class="cls-2" d="M33.06,31.05l-1.43,2"/><path class="cls-2" d="M15.85,36.63a2.79,2.79,0,0,0-.72,1"/><path class="cls-2" d="M20.81,38.74c-1.59,1.67-3.2,3.33-4.83,4.95"/><path class="cls-2" d="M13.31,46.17a2.66,2.66,0,0,0-.68.78s0,.06,0,.08.07,0,.05,0"/><path class="cls-2" d="M42.3,37.89l-1.37,1.55"/><path class="cls-2" d="M46,27.78c-.73.77-1.44,1.55-2.14,2.35"/><path class="cls-2" d="M41.08,46c.9-3,1.89-6.2,4.23-8.31a.65.65,0,0,1,.31-.18.69.69,0,0,1,.48.2,3.59,3.59,0,0,0,2.58.63,12.54,12.54,0,0,0-4.74,4.13q-1.39,1.77-2.69,3.64a.28.28,0,0,0-.06.09"/><path class="cls-2" d="M38.62,36.45q-2.57,2.63-5,5.34"/><path class="cls-2" d="M50.55,40.88A10.59,10.59,0,0,0,48.1,43.2"/><path class="cls-2" d="M40.33,49.83l.07-.09a23.81,23.81,0,0,1,2.1-2.25,4,4,0,0,1,.79-.53,1.88,1.88,0,0,1,1.39-.16,4,4,0,0,1,1.06.79c1,.85,2.84.63,4,0a5.87,5.87,0,0,0-1.8,2.19"/><path class="cls-2" d="M49.73,47.57a7.23,7.23,0,0,1,1.86,1.84"/><polyline class="cls-2" points="59.24 49.78 54.14 49.78 51.59 49.77 47.93 49.76 40.4 49.74 23.65 49.71 2.58 49.65"/><path class="cls-2" d="M66.7,40.42c-1.1.64-1.69,2.52-2.37,3.59a13.36,13.36,0,0,0-.81,1.71c-.55,1.23-2,2.24-3,3.14l-1.24.92,17.42,0A2.79,2.79,0,0,0,75,48.32,5,5,0,0,1,74.1,48c-.64-.32-.92-1.07-1.38-1.62s-1.11-.94-1.61-1.48-.94-1.53-1.56-2.16c-.87-.89-2.25-1.27-2.85-2.36-.61.29-1.22.58-1.81.91h0a11.75,11.75,0,0,0-2.86,2,17,17,0,0,1-1.53,1.53,9.88,9.88,0,0,1-1.39.84,23.69,23.69,0,0,0-2.55,1.66,21.17,21.17,0,0,0-2.41,2.11"/><path d="M80.39,36.11c-.1,0-.14,0-.2-.22-.21-.81-.28-1.26-.47-2.18l1.66-.55,1-.28V27.76A10.71,10.71,0,0,0,80,28l-.16-.87a12.55,12.55,0,0,0,2.53.21v-3.8c0-1.45,0-2,0-2.36h2v6.16h.07c.8-1.85.92-2,1.08-2s.27.12.79.81c.68.88.8,1.19.8,1.34s-.09.3-.35.3H84.29v4.46c.87-.33,1.75-.68,2.58-1.09l.24,1.33a33.45,33.45,0,0,1-2.8,1.93L84.45,42a2.61,2.61,0,0,1-2.31,2.69c-.48,0-.5-.1-.55-.66-.11-1-.23-1.54-1.7-2.15v-.28a9.84,9.84,0,0,0,1.68,0c.6-.1.76-.31.76-1.19l0-5.1ZM97,43.89a2.5,2.5,0,0,1-2.67.32c-1-.42-1.16-.54-2.69-2.92-.23-.41-.44-.84-.65-1.32a12.83,12.83,0,0,1-6.47,3.88l-.09-.23a18.32,18.32,0,0,0,5.76-5.83,37,37,0,0,1-1.37-8l0-.22a26.21,26.21,0,0,0-3,.63l-.2-.84c1,0,2-.15,3.16-.28-.08-1.54-.09-3.77-.17-5.59,0-.69,0-.84,0-1.32h2.09c0,1.72,0,4.89.14,6.66l2.58-.3c.85-2.13,1-2.41,1.09-2.41s.41.05,1.08.76c.83.84.95,1.06.95,1.29s-.08.38-.38.43l-5.3.69c0,.15,0,.28,0,.4a29.77,29.77,0,0,0,.87,5.52,30.88,30.88,0,0,0,1.53-3.49,4.14,4.14,0,0,0,.3-1.32l.09-.07c2,1.57,2.32,1.92,2.32,2.33s-.29.55-.87.5a34.31,34.31,0,0,1-2.51,4.59,18.8,18.8,0,0,0,1.18,2.15c.26.45,1,1.79,1.42,2a2,2,0,0,0,1.4,0M92,23.46l.67-1.11L95,23.78,94,25.57Z"/><path d="M104.92,44.1a4.73,4.73,0,0,0,4-4,34.85,34.85,0,0,1-3.43,2,1,1,0,0,1-.53.18c-.14,0-.22-.15-.33-.4a16,16,0,0,1-.67-2.16l.09-.23a8.39,8.39,0,0,0,1.5,0c1.46-.08,2.54-.2,3.57-.35a16.23,16.23,0,0,0,.14-1.7h-1.15a18.08,18.08,0,0,0-3.06.2l-.16-.86a21.48,21.48,0,0,0,3.22.2h1.15v-1.8h-1.38a18.72,18.72,0,0,0-3.41.21l-.16-.86a23.42,23.42,0,0,0,3.57.2h1.38v-.74a4.87,4.87,0,0,0-.18-1.34l.14-.18c2.44.48,2.78.61,2.78,1s-.23.53-.71.73v2c0,6.51-2.71,9.54-6.43,9.57Zm8.35-21.71v1.07h2.67c.92-1.55,1.1-1.85,1.24-1.85s.31.1.86.73c.69.81.83,1,.83,1.27s-.1.3-.4.3h-5.2v.28l0,2h3.92c1-1.62,1.13-1.87,1.29-1.87s.35.1,1,.81.77.88.77,1.16-.1.36-.4.36h-6.57v.25c0,.91-.78,1.22-1.68,1.22-.62,0-.67-.1-.67-.74v-.73h-2.68a30,30,0,0,0-3.87.2l-.16-.86c.62.07,1.24.13,1.87.15a21.58,21.58,0,0,0,1.12-3.92,6.46,6.46,0,0,0,.12-1.25l.14-.15c2,.81,2.49,1.07,2.49,1.52s-.14.43-.72.51c-.11.2-.23.4-.34.61h2.09V23a4.76,4.76,0,0,0-.2-2Zm2.46,6.16c.67-1.19.83-1.39,1-1.39s.53.2,1.15.88.78,1,.78,1.24-.2.56-.68.86v.28l.11,1.12c0,1-.57,1.26-1.59,1.26-.53,0-.6,0-.6-.68v-.36h-7.24v.36c0,.84-.62,1.09-1.54,1.09-.48,0-.58-.05-.58-1l.12-2.26v-.68a6.42,6.42,0,0,0-.14-1.67l.12-.18A7.88,7.88,0,0,1,109,28.55Zm-7-4.64a10,10,0,0,1-2,2.26c.52,0,1.06,0,1.64,0H111l0-1.9v-.38ZM109,29c0,.13-.16.23-.4.38v1.93h7.24V29Zm4,15,.09-5.73V34.73a4.76,4.76,0,0,0-.2-2l.13-.2c2.38.37,2.72.55,2.72.88s-.16.51-.64.76v.51h2.46c.83-1.65,1-1.78,1.09-1.78s.28.11.85.76.74,1,.74,1.17-.09.3-.35.3h-4.79v2.23h2.26c.8-1.52.89-1.64,1-1.64s.28.1.78.65c.63.71.74,1,.74,1.12s-.09.33-.36.33h-4.43v.35l0,2.08h2.65c.83-1.67,1-1.85,1.15-1.85s.37.18.93.86.75,1,.75,1.17-.09.3-.36.3h-5.1l0,3.27Z"/><path d="M137.41,23V41.06h3.78V27.63l2.28-.43v5.91l.18,9.67c0,.86-.78,1.35-1.84,1.35-.55,0-.62-.11-.62-.79V41.52h-9.64v1.62c0,.86-.64,1.29-1.73,1.29-.54,0-.62-.1-.62-.79l.17-10.36v-4l2.18-.69V41.06h3.58V23.41Z"/><path d="M92.82,13.35h.41v3h-.41Zm1.87,1.17a.88.88,0,0,0-.19-.61.65.65,0,0,0-.54-.22.69.69,0,0,0-.53.2.74.74,0,0,0-.2.55l-.06-.57a1,1,0,0,1,.39-.43,1.17,1.17,0,0,1,.57-.14.94.94,0,0,1,.53.15.91.91,0,0,1,.33.41,1.66,1.66,0,0,1,.11.66v1.81h-.41Zm1.87,0a.88.88,0,0,0-.19-.61.67.67,0,0,0-.54-.22.7.7,0,0,0-.54.21.92.92,0,0,0-.19.6l-.17-.43a1.22,1.22,0,0,1,.4-.57,1,1,0,0,1,.61-.2,1,1,0,0,1,.56.15.89.89,0,0,1,.35.41,1.66,1.66,0,0,1,.12.66v1.81h-.41Z"/><path d="M100.11,16.22a1.05,1.05,0,0,1-.42-.44,1.65,1.65,0,0,1-.14-.7v-.49a1.6,1.6,0,0,1,.14-.69,1,1,0,0,1,.42-.44,1.3,1.3,0,0,1,.67-.16,1.24,1.24,0,0,1,.66.16.9.9,0,0,1,.42.44,1.47,1.47,0,0,1,.15.69v.5a1.47,1.47,0,0,1-.15.69.9.9,0,0,1-.42.44,1.24,1.24,0,0,1-.66.16A1.3,1.3,0,0,1,100.11,16.22Zm1.27-.47a1,1,0,0,0,.22-.66v-.5a.94.94,0,0,0-.22-.66.76.76,0,0,0-.61-.24.78.78,0,0,0-.6.24.93.93,0,0,0-.21.66v.5a1,1,0,0,0,.21.66.78.78,0,0,0,.6.24A.76.76,0,0,0,101.38,15.75Z"/><path d="M105,15.16a.82.82,0,0,0,.21.61.73.73,0,0,0,.58.22.75.75,0,0,0,.57-.2.73.73,0,0,0,.2-.56l0,.63a.91.91,0,0,1-.36.37,1.19,1.19,0,0,1-.62.15,1,1,0,0,1-.76-.32,1.34,1.34,0,0,1-.27-.9V13.35H105Zm1.56-1.81h.42v3h-.42Z"/><path d="M109.58,13.35H110v3h-.42Zm2,1.17a.84.84,0,0,0-.21-.61.77.77,0,0,0-.59-.22.8.8,0,0,0-.57.19.77.77,0,0,0-.2.56l-.06-.58a.86.86,0,0,1,.42-.42,1.27,1.27,0,0,1,.6-.14,1,1,0,0,1,.76.32,1.4,1.4,0,0,1,.26.9v1.81h-.41Z"/><path d="M114.41,13.35h1.35v.35h-1.35Zm.48,2.8a.92.92,0,0,1-.17-.59V12.48h.41v3.08a.45.45,0,0,0,.09.3.31.31,0,0,0,.26.1h.28v.39h-.34A.66.66,0,0,1,114.89,16.15Z"/><path d="M118.48,16.14a.84.84,0,0,1-.29-.69.83.83,0,0,1,.26-.65,1.06,1.06,0,0,1,.74-.23h1l0,.38h-1a.75.75,0,0,0-.45.13.48.48,0,0,0-.15.37.47.47,0,0,0,.19.4,1,1,0,0,0,.56.14,1.84,1.84,0,0,0,.6-.08c.14-.05.21-.13.21-.22l.06.39a.67.67,0,0,1-.23.16,1,1,0,0,1-.32.1,1.53,1.53,0,0,1-.38,0A1.22,1.22,0,0,1,118.48,16.14Zm1.68-1.7a.68.68,0,0,0-.74-.76,1.2,1.2,0,0,0-.42.07,1,1,0,0,0-.36.19l-.31-.2a1.12,1.12,0,0,1,.45-.32,1.56,1.56,0,0,1,.62-.12,1.33,1.33,0,0,1,.63.14.84.84,0,0,1,.41.38,1.21,1.21,0,0,1,.14.6v1.91h-.42Z"/><path d="M123.32,12.15h.42v.42h-.42Zm0,1.2h.42v3h-.42Z"/><path d="M126.48,13.35h.42v3h-.42Zm2,1.17a.84.84,0,0,0-.21-.61.77.77,0,0,0-.59-.22.79.79,0,0,0-.57.19.73.73,0,0,0-.2.56l-.06-.58a.86.86,0,0,1,.42-.42,1.27,1.27,0,0,1,.6-.14,1,1,0,0,1,.76.32,1.4,1.4,0,0,1,.26.9v1.81h-.41Z"/></svg>