<svg id="圖層_1" data-name="圖層 1" xmlns="http://www.w3.org/2000/svg" viewBox="0 0 86.92 78.47"><defs><style>.cls-1{fill:#ccc;}.cls-2{fill:none;stroke:#000;stroke-linecap:round;stroke-linejoin:round;stroke-width:0.87px;}</style></defs><circle class="cls-1" cx="25.62" cy="24.05" r="19.12"/><circle cx="31.7" cy="22.21" r="1.15"/><path d="M81.47,50.53l-17.41,0,1.23-.92c1.08-.91,2.49-1.92,3-3.14a12.88,12.88,0,0,1,.81-1.72c.69-1.07,1.27-3,2.37-3.58.6,1.08,2,1.47,2.85,2.35.63.64,1,1.51,1.57,2.16s1.14.92,1.61,1.48.73,1.31,1.37,1.63a6,6,0,0,0,.88.28A2.74,2.74,0,0,1,81.47,50.53Z"/><path d="M69.7,42a11.65,11.65,0,0,0-2.87,2,16.88,16.88,0,0,1-1.53,1.52,9.84,9.84,0,0,1-1.38.85,21.54,21.54,0,0,0-2.56,1.66L61.27,48c-1.1-1.48-3.62-3.17-4.72-4.64-.31-.42-1.34-1.26-1.19-1.75a28.55,28.55,0,0,1,.43-3.09,17.93,17.93,0,0,1,.83-3,7.56,7.56,0,0,0,.6-1.87,2,2,0,0,0-.62-1.79c-.19-.16-.45-.28-.53-.51a.81.81,0,0,1,0-.41,7.53,7.53,0,0,0,0-2.32,2.39,2.39,0,0,0-1.37-1.78.86.86,0,0,1-.41-.22c-.13-.15-.09-.38-.08-.59a4.76,4.76,0,0,0-1.37-3.2A4.08,4.08,0,0,1,55,23a2.3,2.3,0,0,1,.78.77l3.83,5.37A17.46,17.46,0,0,1,60.83,31a11.25,11.25,0,0,0,.82,1.53,15.8,15.8,0,0,0,1.69,1.58C65.31,36,67.35,40.6,69.7,42Z"/><path d="M50.92,38.38a3.57,3.57,0,0,0,2.57.62,12.48,12.48,0,0,0-4.74,4.14q-1.39,1.77-2.69,3.63l-.17-.11c.9-3,1.89-6.19,4.23-8.3a.55.55,0,0,1,.31-.18A.69.69,0,0,1,50.92,38.38Z"/><path d="M48.21,26.79c-.28.38-.57.76-.85,1.11a54.23,54.23,0,0,1-6,6.08,4.82,4.82,0,0,0,.88-3c0-.51,0-1,.06-1.53.2-1.2,1.2-2.15,1.42-3.35a9.74,9.74,0,0,0,0-2,6.37,6.37,0,0,1,1-3.66l.14-.29a3.54,3.54,0,0,1,1,1C46.2,21.55,48,26.24,48.21,26.79Z"/><path class="cls-2" d="M69.7,42c-2.35-1.43-4.39-6-6.36-7.92a15.8,15.8,0,0,1-1.69-1.58A11.25,11.25,0,0,1,60.83,31a17.46,17.46,0,0,0-1.2-1.87L55.8,23.76A2.3,2.3,0,0,0,55,23a4.08,4.08,0,0,0-2.17-.18"/><path class="cls-2" d="M41.39,34l-.22.2a9.81,9.81,0,0,0-3,3.53c-.26.68-.37,1.4-.68,2.06A1.94,1.94,0,0,1,35.9,41"/><path class="cls-2" d="M52.85,22.81c-2,.19-3.33,2.17-4.64,4-.28.38-.57.76-.85,1.11a54.23,54.23,0,0,1-6,6.08"/><path class="cls-2" d="M35.9,41c-1.27.12-.82,1.42-1.31,2a1.28,1.28,0,0,1-.65.52c-.3.08-.63,0-.91.09-.48.23-.42.9-.51,1.42a3.34,3.34,0,0,1-1.85,2,5.31,5.31,0,0,0-2.21,1.77"/><path class="cls-2" d="M52.85,22.81A4.76,4.76,0,0,1,54.22,26c0,.21,0,.44.08.59a.86.86,0,0,0,.41.22,2.39,2.39,0,0,1,1.37,1.78,7.53,7.53,0,0,1,0,2.32.81.81,0,0,0,0,.41c.08.23.34.35.53.51a2,2,0,0,1,.62,1.79,7.56,7.56,0,0,1-.6,1.87,17.93,17.93,0,0,0-.83,3,28.55,28.55,0,0,0-.43,3.09"/><path class="cls-2" d="M55.36,41.59c-.15.49.88,1.33,1.19,1.75,1.1,1.47,3.62,3.16,4.72,4.64"/><path class="cls-2" d="M48.21,26.79c-.25-.55-2-5.24-2.32-5.71a3.54,3.54,0,0,0-1-1,2.62,2.62,0,0,0-2.44-.41c-.52.13-1.07.35-1.65.55a47.73,47.73,0,0,0-4.35,2.18,6.48,6.48,0,0,0-1.58.89"/><path class="cls-2" d="M44.73,20.39a6.37,6.37,0,0,0-1,3.66,9.74,9.74,0,0,1,0,2c-.22,1.2-1.22,2.15-1.42,3.35-.08.51,0,1-.06,1.53a4.82,4.82,0,0,1-.88,3s0,0,0,0a1,1,0,0,1-.22.2"/><path class="cls-2" d="M42.4,19.52c-.53-.7-1.06-1.4-1.58-2.11-.88-1.16-2-2.46-3.49-2.28a26.64,26.64,0,0,0-1.54-2.69c-.49-.74-1.19-1.55-2.07-1.43S32.36,12.1,32.05,13c-.51,1.4-1,2.8-1.55,4.2-.68,1.86-1.58,3.94-3.45,4.6"/><path class="cls-2" d="M27.05,21.75c-1.6,1.93-.83,5.16-2.53,7-.37.4-.83.72-1.19,1.13-.94,1.13-.91,2.88-2,3.88-.51.47-1.2.7-1.7,1.18-.84.8-1.12,2.24-2.22,2.63"/><path class="cls-2" d="M17.32,37.61a3.46,3.46,0,0,0-.26,1.51c0,.18,0,.36,0,.54a10.07,10.07,0,0,1-.95,3.06"/><path class="cls-2" d="M16.74,39.11a1.57,1.57,0,0,0-1.88.31,5.28,5.28,0,0,0-1,1.78,23.78,23.78,0,0,1-4,6.18,15.21,15.21,0,0,0-2.41,3"/><path class="cls-2" d="M41.38,25.11l-.42.57"/><path class="cls-2" d="M34.34,17.49a1.7,1.7,0,0,0-.58,1"/><path class="cls-2" d="M37.87,31.75l-1.43,2"/><path class="cls-2" d="M20.66,37.34a2.84,2.84,0,0,0-.72,1"/><path class="cls-2" d="M25.63,39.45q-2.4,2.5-4.84,4.95"/><path class="cls-2" d="M18.13,46.88a2.79,2.79,0,0,0-.69.77s0,.06,0,.09.07,0,0,0"/><path class="cls-2" d="M47.11,38.59l-1.36,1.55"/><path class="cls-2" d="M50.8,28.49c-.73.77-1.44,1.55-2.14,2.34"/><path class="cls-2" d="M45.89,46.66c.9-3,1.89-6.19,4.23-8.3a.55.55,0,0,1,.31-.18.69.69,0,0,1,.49.2,3.57,3.57,0,0,0,2.57.62,12.48,12.48,0,0,0-4.74,4.14q-1.39,1.77-2.69,3.63a.7.7,0,0,1-.06.09"/><path class="cls-2" d="M43.43,37.16c-1.7,1.75-3.38,3.52-5,5.33"/><path class="cls-2" d="M55.36,41.59a10.76,10.76,0,0,0-2.45,2.31"/><path class="cls-2" d="M45.14,50.53a.6.6,0,0,1,.08-.08,22.46,22.46,0,0,1,2.09-2.26,4,4,0,0,1,.79-.52,1.89,1.89,0,0,1,1.39-.16,3.67,3.67,0,0,1,1.06.79c1,.84,2.84.62,4,0a5.84,5.84,0,0,0-1.8,2.18"/><path class="cls-2" d="M54.54,48.28a6.93,6.93,0,0,1,1.86,1.84"/><polyline class="cls-2" points="64.06 50.49 58.95 50.48 56.4 50.47 52.74 50.46 45.22 50.45 28.46 50.41 7.39 50.36"/><path class="cls-2" d="M71.51,41.13c-1.1.63-1.68,2.51-2.37,3.58a12.88,12.88,0,0,0-.81,1.72c-.55,1.22-2,2.23-3,3.14l-1.23.92,17.41,0A2.74,2.74,0,0,0,79.79,49a6,6,0,0,1-.88-.28c-.64-.32-.92-1.07-1.37-1.63s-1.12-.94-1.61-1.48-.94-1.52-1.57-2.16c-.87-.88-2.25-1.27-2.85-2.35-.61.28-1.21.58-1.81.9h0a11.65,11.65,0,0,0-2.87,2,16.88,16.88,0,0,1-1.53,1.52,9.84,9.84,0,0,1-1.38.85,21.54,21.54,0,0,0-2.56,1.66A22.94,22.94,0,0,0,59,50.19"/><path d="M22.19,68.92c-.07,0-.09,0-.13-.14-.14-.55-.19-.86-.33-1.48l1.13-.38c.21,0,.42-.12.65-.19V63.26a7.22,7.22,0,0,0-1.61.14l-.1-.59a8.27,8.27,0,0,0,1.71.14V60.37c0-1,0-1.33,0-1.6h1.34V63h.05c.54-1.26.62-1.36.73-1.36s.18.09.54.55.54.81.54.91-.06.21-.24.21H24.84v3c.59-.22,1.19-.46,1.75-.73l.16.9c-.75.61-1.14.79-1.89,1.31L25,72.94a1.76,1.76,0,0,1-1.57,1.82c-.33,0-.34-.07-.37-.44-.08-.71-.16-1-1.16-1.47v-.19a5.88,5.88,0,0,0,1.14,0c.41-.07.52-.21.52-.81l0-3.46ZM33.45,74.2a1.66,1.66,0,0,1-1.81.22c-.64-.28-.78-.37-1.82-2a8.2,8.2,0,0,1-.44-.89A8.76,8.76,0,0,1,25,74.18L24.92,74a12.53,12.53,0,0,0,3.92-4,24.86,24.86,0,0,1-.94-5.45v-.16c-.73.11-1.44.28-2,.43l-.13-.57c.66,0,1.39-.1,2.14-.18-.06-1-.06-2.57-.12-3.8,0-.47,0-.57,0-.9h1.42c0,1.17,0,3.32.09,4.52l1.75-.2c.58-1.45.69-1.64.75-1.64s.27,0,.73.52.64.72.64.88-.05.25-.26.29l-3.6.46c0,.11,0,.19,0,.28a21.07,21.07,0,0,0,.58,3.75,21.34,21.34,0,0,0,1-2.38,2.89,2.89,0,0,0,.2-.89l.06,0c1.37,1.06,1.57,1.3,1.57,1.58s-.19.38-.58.34A23.9,23.9,0,0,1,30.44,70a11.51,11.51,0,0,0,.81,1.46,5,5,0,0,0,1,1.34,1.4,1.4,0,0,0,1,0M30.1,60.34l.45-.76,1.54,1-.65,1.21Z"/><path d="M38.85,74.35a3.22,3.22,0,0,0,2.74-2.73c-.77.49-1.55.92-2.33,1.32a.79.79,0,0,1-.36.12c-.09,0-.15-.1-.23-.27a12.16,12.16,0,0,1-.45-1.47l.06-.15a8.72,8.72,0,0,0,1,0c1-.06,1.73-.14,2.42-.24a9.08,9.08,0,0,0,.1-1.16H41a12.43,12.43,0,0,0-2.08.14l-.11-.58a14.91,14.91,0,0,0,2.19.13h.78V68.26h-.94a13.55,13.55,0,0,0-2.31.14l-.11-.58a16.17,16.17,0,0,0,2.42.13h.94v-.5a3.39,3.39,0,0,0-.12-.91l.09-.12c1.66.33,1.89.42,1.89.69s-.16.36-.48.5V69c0,4.42-1.84,6.49-4.37,6.5Zm5.67-14.74v.73h1.81c.62-1.05.74-1.26.84-1.26s.21.07.58.5.57.65.57.86-.07.21-.28.21H44.52v.18l0,1.36H47.2c.65-1.1.77-1.27.88-1.27s.24.07.68.55.53.6.53.79-.07.24-.28.24H44.55v.17c0,.62-.53.83-1.14.83-.42,0-.45-.07-.45-.5v-.5H41.15a20.67,20.67,0,0,0-2.63.14l-.11-.58c.42,0,.84.08,1.27.1a14,14,0,0,0,.76-2.67,3.86,3.86,0,0,0,.08-.84l.1-.1c1.35.55,1.69.72,1.69,1s-.1.29-.49.34c-.07.14-.16.28-.23.42H43V60a3.21,3.21,0,0,0-.14-1.36Zm1.66,4.18c.46-.81.57-.94.66-.94s.36.13.78.6.53.67.53.84-.13.38-.46.58v.19l.08.76c0,.67-.39.86-1.08.86-.36,0-.41,0-.41-.46V66H41.36v.24c0,.56-.42.74-1,.74-.33,0-.4,0-.4-.66L40,64.77v-.46a4.61,4.61,0,0,0-.1-1.14l.08-.12a5.67,5.67,0,0,1,1.6.74ZM41.4,60.65A7,7,0,0,1,40,62.18H43l0-1.29v-.25Zm.24,3.45c0,.09-.11.16-.28.26v1.31h4.92V64.1Zm2.74,10.18.06-3.88V68a3.26,3.26,0,0,0-.13-1.36l.09-.14c1.61.26,1.84.38,1.84.6s-.11.35-.43.52V68h1.67c.56-1.11.66-1.2.74-1.2s.19.07.58.52.5.67.5.79-.06.2-.24.2H45.81v1.52h1.54c.54-1,.6-1.12.68-1.12s.19.07.53.45.5.65.5.75-.06.23-.24.23h-3v1.65h1.8c.57-1.14.69-1.26.78-1.26s.25.12.64.59.5.65.5.79-.06.2-.24.2H45.84v2.22Z"/><path d="M60.9,60V72.29h2.57V63.17L65,62.88v4l.12,6.57c0,.58-.53.91-1.25.91-.37,0-.42-.07-.42-.54V72.6H56.92v1.1c0,.58-.43.87-1.17.87-.36,0-.42-.06-.42-.53l.12-7v-2.7l1.47-.47v8.45h2.44v-12Z"/><path d="M30.63,53.47h.28v2h-.28Zm1.27.8a.6.6,0,0,0-.13-.42.45.45,0,0,0-.36-.15.47.47,0,0,0-.5.52l0-.39a.67.67,0,0,1,.27-.3.76.76,0,0,1,.38-.09.61.61,0,0,1,.36.1.57.57,0,0,1,.22.28,1,1,0,0,1,.08.45V55.5H31.9Zm1.27,0a.6.6,0,0,0-.13-.42.46.46,0,0,0-.36-.15.47.47,0,0,0-.37.15.58.58,0,0,0-.13.41l-.12-.3a.93.93,0,0,1,.27-.38.68.68,0,0,1,.42-.14.67.67,0,0,1,.38.1.67.67,0,0,1,.24.28,1.21,1.21,0,0,1,.08.45V55.5h-.28Z"/><path d="M35.58,55.43a.65.65,0,0,1-.28-.31,1,1,0,0,1-.1-.47v-.33a1,1,0,0,1,.1-.48.61.61,0,0,1,.28-.29.94.94,0,0,1,.45-.11.88.88,0,0,1,.45.11.58.58,0,0,1,.29.29,1,1,0,0,1,.1.48v.33a1,1,0,0,1-.1.48.65.65,0,0,1-.29.3,1,1,0,0,1-.45.1A1.06,1.06,0,0,1,35.58,55.43Zm.86-.32a.65.65,0,0,0,.15-.46v-.33a.65.65,0,0,0-.15-.46A.53.53,0,0,0,36,53.7a.57.57,0,0,0-.41.16.7.7,0,0,0-.14.46v.33a.7.7,0,0,0,.14.46.57.57,0,0,0,.41.16A.53.53,0,0,0,36.44,55.11Z"/><path d="M38.87,54.7a.56.56,0,0,0,.14.42.5.5,0,0,0,.39.15.53.53,0,0,0,.39-.14.51.51,0,0,0,.14-.38l0,.43a.64.64,0,0,1-.24.25.9.9,0,0,1-.42.1.62.62,0,0,1-.52-.22.91.91,0,0,1-.18-.61V53.47h.28Zm1.06-1.23h.28v2h-.28Z"/><path d="M42,53.47h.28v2H42Zm1.35.8a.61.61,0,0,0-.14-.42.54.54,0,0,0-.4-.15.53.53,0,0,0-.39.14.48.48,0,0,0-.14.37l0-.39a.68.68,0,0,1,.29-.29.86.86,0,0,1,.41-.09.61.61,0,0,1,.51.22.92.92,0,0,1,.18.61V55.5h-.28Z"/><path d="M45.29,53.47h.91v.24h-.91Zm.32,1.9a.64.64,0,0,1-.11-.4V52.88h.28V55a.32.32,0,0,0,.06.2.22.22,0,0,0,.17.07h.19v.26H46A.46.46,0,0,1,45.61,55.37Z"/><path d="M48.05,55.36a.56.56,0,0,1-.2-.46.54.54,0,0,1,.18-.44.73.73,0,0,1,.51-.16h.67l0,.26h-.7a.45.45,0,0,0-.3.09.34.34,0,0,0,0,.52.69.69,0,0,0,.38.09,1.14,1.14,0,0,0,.41,0c.09,0,.14-.08.14-.15l0,.27a.58.58,0,0,1-.15.11l-.22.07-.26,0A.82.82,0,0,1,48.05,55.36Zm1.14-1.15a.52.52,0,0,0-.13-.38.49.49,0,0,0-.37-.13,1,1,0,0,0-.29,0,.72.72,0,0,0-.24.14L48,53.74a.7.7,0,0,1,.31-.22,1.07,1.07,0,0,1,.41-.08,1,1,0,0,1,.44.09.62.62,0,0,1,.27.26.86.86,0,0,1,.09.41v1.3h-.28Z"/><path d="M51.34,52.66h.28v.28h-.28Zm0,.81h.28v2h-.28Z"/><path d="M53.48,53.47h.28v2h-.28Zm1.35.8a.61.61,0,0,0-.14-.42.54.54,0,0,0-.4-.15.53.53,0,0,0-.39.14.48.48,0,0,0-.14.37l0-.39a.68.68,0,0,1,.29-.29.88.88,0,0,1,.41-.09.61.61,0,0,1,.51.22.92.92,0,0,1,.18.61V55.5h-.28Z"/></svg>